<svg xmlns="http://www.w3.org/2000/svg" viewBox="0 0 650.86 215.76">
  <title>Asset 2</title>
  <g id="Layer_2" data-name="Layer 2">
    <g id="Layer_1-2" data-name="Layer 1">
      <g>
        <g>
          <path d="M334.49,0H36.41L0,206.52H20l-1.64,9.24H308l34.95-198.2H331.39Zm-9.92,8.32L291.08,198.2H9.91L43.4,8.32Z" style="fill: #131313"/>
          <g>
            <polygon points="151.9 44.97 125.69 109.65 125.55 44.97 102.83 44.97 82.27 161.55 98.09 161.55 111.38 86.19 112 161.55 122.13 161.55 149.17 86.19 135.89 161.55 152.5 161.55 173.05 44.97 151.9 44.97" style="fill: #131313"/>
            <polygon points="204.86 109.65 204.71 44.97 181.99 44.97 161.44 161.55 177.26 161.55 190.54 86.19 191.16 161.55 201.3 161.55 228.34 86.19 215.05 161.55 231.66 161.55 252.22 44.97 231.06 44.97 204.86 109.65" style="fill: #f26128"/>
          </g>
        </g>
        <g>
          <g>
            <polygon points="395.94 79.02 402.03 79.02 402.03 59.26 413.15 75.41 424.25 59.26 424.25 79.02 430.38 79.02 430.38 45.69 426.45 45.69 413.17 65.13 399.8 45.69 395.94 45.69 395.94 79.02" style="fill: #f26128"/>
            <rect x="448.7" y="45.69" width="6.17" height="33.33" style="fill: #f26128"/>
            <polygon points="480.35 62.15 469.57 79.02 476.88 79.02 484.19 66.97 491.44 79.02 498.62 79.02 488.02 62.15 498.62 45.69 491.35 45.69 484.22 57.51 477.39 45.69 470.25 45.69 480.35 62.15" style="fill: #f26128"/>
            <polygon points="519.94 79.02 526.16 79.02 526.16 51.65 535.77 51.65 535.77 45.69 510.34 45.69 510.34 51.65 519.94 51.65 519.94 79.02" style="fill: #f26128"/>
            <path d="M544.29,79h6.54l2.76-7.59H565.4L568.15,79h6.54L561.92,45.69H557.2ZM563.65,65.9H555.4l4.13-11.42Z" style="fill: #f26128"/>
            <path d="M589.58,79h6.12V67.24h5.42c4,0,7-1,9-3.06a10.37,10.37,0,0,0,3-7.63,10.87,10.87,0,0,0-2.89-7.66c-1.93-2.12-4.78-3.2-8.59-3.2h-12Zm12.18-27.6a4.81,4.81,0,0,1,5.08,5c0,2.85-1.92,5.14-5.54,5.14h-5.6V51.42Z" style="fill: #f26128"/>
            <polygon points="628.71 79.02 650.86 79.02 650.86 73.24 634.88 73.24 634.88 65.03 649.64 65.03 649.64 59.31 634.88 59.31 634.88 51.47 650.86 51.47 650.86 45.69 628.71 45.69 628.71 79.02" style="fill: #f26128"/>
          </g>
          <g>
            <polygon points="425.77 92.96 410.37 131.01 410.27 92.96 396.91 92.96 384.82 161.54 394.13 161.54 401.95 117.21 402.32 161.54 408.27 161.54 424.18 117.21 416.36 161.54 426.13 161.54 438.22 92.96 425.77 92.96" style="fill: #131313"/>
            <path d="M501,93H481l-12.09,68.58h20c8.56,0,12.61-5.16,14.12-13.65l7.35-41.75C511.82,98,510,93,501,93Zm-1.68,15.31-6.7,38c-.64,3.68-1.78,5.34-5,5.34h-6.55l8.59-48.67h7C499.26,102.91,500,104.3,499.33,108.27Z" style="fill: #131313"/>
            <path d="M604.28,115.45h10.06l2-11.24c1.43-8.12-1.22-11.9-9.79-11.9h-1.94c-8.21,0-13.55,4.16-15.17,13.36l-.39,2.22c-1.21,6.83-.69,11.25,2.72,17l5.14,8.47c2.91,5,3.09,6.55,2.22,11.52l-.28,1.57c-.77,4.33-2,5.9-4.45,5.9-2.3,0-3.15-1.57-2.57-4.79l2.1-12H583.6l-2.42,13.74c-1.5,8.48,2,13,10.42,13h2c9.23,0,14.52-6,16.3-16l.38-2.22c1.39-7.83.52-11.23-3.11-17.33l-5.12-8.57c-2.71-4.51-3.07-6.63-2.39-10.5l.22-1.29c.57-3.22,1.41-4.79,3.9-4.79s2.63,1.75,2.22,4Z" style="fill: #131313"/>
            <path d="M640.26,92.31h-1.93c-8.2,0-13.54,4.16-15.17,13.36l-.39,2.22c-1.2,6.83-.7,11.25,2.71,17l5.16,8.47c2.89,5,3.08,6.55,2.2,11.52l-.27,1.57c-.78,4.33-2,5.9-4.46,5.9-2.29,0-3.13-1.57-2.56-4.79l2.11-12H617.34l-2.42,13.74c-1.5,8.48,2,13,10.42,13h2c9.21,0,14.51-6,16.28-16l.39-2.22c1.38-7.83.51-11.23-3.12-17.33l-5.13-8.57c-2.7-4.51-3.06-6.63-2.37-10.5l.21-1.29c.58-3.22,1.4-4.79,3.89-4.79s2.64,1.75,2.23,4L638,115.45h10.06l2-11.24C651.49,96.09,648.85,92.31,640.26,92.31Z" style="fill: #131313"/>
            <path d="M463.85,93h-8.67c-8.94,0-12.59,5.07-14,13.18l-9.76,55.4h10.69l3.55-20.16h10.7l-3.56,20.16h10.69l9.77-55.4C474.66,98,472.79,93,463.85,93Zm-1.7,15.31-4,23H447.4l4.07-23c.7-4,2-5.36,4.54-5.36h3.5C462.09,102.91,462.86,104.3,462.15,108.27Z" style="fill: #131313"/>
            <path d="M583.3,106.08c1.35-7.76-.35-12.7-8.39-13.08-.33,0-.65,0-1,0H567c-.35,0-.68,0-1,0-8.18.38-11.62,5.32-13,13.08v.06l-3.73,21.11-3.72,21.11a.07.07,0,0,1,0,0c-1.35,7.76.35,12.71,8.38,13.09.34,0,.67,0,1,0h6.88c.35,0,.67,0,1,0,8.17-.38,11.62-5.32,13-13.09l1-5.69H566.15l-.62,3.51a2,2,0,0,0,0,.24c-.72,3.77-2,5.11-4.5,5.11h-1.71c-2.58,0-3.35-1.38-2.65-5.35l.86-4.85,1.12-6.35h19.58l.34-1.93.72-4.06.68-3.9,0-.15,3.31-18.85S583.29,106.1,583.3,106.08Zm-20,2.19.06-.24c.7-3.77,2-5.12,4.49-5.12h1.71c2.58,0,3.35,1.39,2.64,5.36L569.28,125l-8.9,0Z" style="fill: #131313"/>
            <path d="M538.25,93H518.18l-12.09,68.58H516.5l10.34-58.63h7.08c2.57,0,3.34,1.39,2.64,5.36l-9.39,53.27h10.69l9.77-55.4C549.06,98,547.18,93,538.25,93Z" style="fill: #131313"/>
          </g>
        </g>
      </g>
    </g>
  </g>
</svg>
