<svg xmlns="http://www.w3.org/2000/svg" viewBox="0 0 342.93 215.76">
  <title>Asset 1</title>
  <g id="Layer_2" data-name="Layer 2">
    <g id="Layer_1-2" data-name="Layer 1">
      <g>
        <path d="M334.49,0H36.41L0,206.52H20l-1.64,9.24H308L342.93,17.57H331.39Zm-9.92,8.32L291.09,198.2H9.91L43.4,8.32Z" style="fill: #131313"/>
        <polygon points="151.9 44.97 125.69 109.65 125.54 44.97 102.82 44.97 82.27 161.55 98.09 161.55 111.38 86.19 112 161.55 122.13 161.55 149.17 86.19 135.89 161.55 152.5 161.55 173.05 44.97 151.9 44.97" style="fill: #131313"/>
        <polygon points="204.85 109.65 204.71 44.97 181.99 44.97 161.44 161.55 177.25 161.55 190.54 86.19 191.16 161.55 201.29 161.55 228.33 86.19 215.05 161.55 231.66 161.55 252.21 44.97 231.06 44.97 204.85 109.65" style="fill: #f26128"/>
      </g>
    </g>
  </g>
</svg>
