<?xml version="1.0" standalone="no"?>
<!DOCTYPE svg PUBLIC "-//W3C//DTD SVG 20010904//EN"
 "http://www.w3.org/TR/2001/REC-SVG-20010904/DTD/svg10.dtd">
<svg version="1.0" xmlns="http://www.w3.org/2000/svg"
 width="260.000000pt" height="260.000000pt" viewBox="0 0 260.000000 260.000000"
 preserveAspectRatio="xMidYMid meet">
<metadata>
Created by potrace 1.11, written by Peter Selinger 2001-2013
</metadata>
<g transform="translate(0.000000,260.000000) scale(0.100000,-0.100000)"
fill="#000000" stroke="none">
<path d="M355 1961 c-2 -4 -6 -31 -10 -61 -3 -30 -8 -68 -11 -85 -3 -16 -7
-46 -8 -65 -5 -48 -56 -460 -61 -486 -1 -11 -7 -52 -11 -90 -4 -38 -9 -72 -10
-76 -1 -5 -2 -17 -3 -28 -1 -16 -8 -20 -40 -20 -37 0 -39 -2 -45 -37 -4 -21
-20 -108 -36 -193 -16 -85 -32 -167 -34 -182 -3 -15 -12 -64 -21 -108 l-16
-80 37 -44 37 -45 298 0 297 -1 6 25 c8 32 21 32 42 -1 l17 -26 167 4 c140 2
170 6 194 21 27 18 28 18 50 -2 18 -17 35 -21 87 -21 37 0 70 5 77 12 9 9 12
9 12 0 0 -17 477 -17 482 -1 3 9 9 9 25 0 35 -18 200 -14 234 6 27 16 31 16
59 0 44 -26 213 -23 253 5 34 24 54 61 62 118 4 25 9 48 11 52 12 20 5 110
-11 135 -19 28 -8 44 27 38 12 -3 18 2 19 16 1 10 2 22 3 27 1 4 6 27 10 52 5
25 10 53 12 63 2 10 -1 28 -5 40 -10 25 -99 127 -109 126 -45 -7 -51 0 -47 54
3 28 6 61 9 72 2 11 7 47 10 80 4 33 9 71 11 85 3 14 7 50 10 81 2 31 6 62 9
70 3 8 7 41 11 74 3 33 8 76 10 95 3 19 7 58 10 85 2 28 7 64 10 80 3 22 -4
45 -28 85 l-33 55 -1033 1 c-567 0 -1034 -2 -1036 -5z m723 -753 c33 -33 -7
-108 -58 -108 -33 0 -50 17 -50 49 0 52 75 92 108 59z m649 4 c23 -15 20 -65
-7 -92 -39 -39 -100 -18 -100 35 0 40 72 79 107 57z"/>
</g>
</svg>
